<svg version="1.1" xmlns="http://www.w3.org/2000/svg" width="189" height="205">
<path d="M0 0 C1.32 0.33 2.64 0.66 4 1 C5.16151047 50.6233011 5.16151047 50.6233011 -3.7265625 61.01953125 C-4.35304688 61.61121094 -4.97953125 62.20289063 -5.625 62.8125 C-6.57246094 63.71935547 -6.57246094 63.71935547 -7.5390625 64.64453125 C-8.26222656 65.31548828 -8.26222656 65.31548828 -9 66 C-7.515 66.99 -7.515 66.99 -6 68 C-6.51267551 73.58166431 -7.98430336 77.73610094 -10.5625 82.6875 C-10.92110107 83.38520508 -11.27970215 84.08291016 -11.64916992 84.80175781 C-21.19194986 103.02339666 -33.12535919 118.00707083 -53 125 C-53.33 125.66 -53.66 126.32 -54 127 C-52.865625 126.979375 -51.73125 126.95875 -50.5625 126.9375 C-47 127 -47 127 -46 128 C-45.90002358 130.49058914 -45.86120373 132.94727395 -45.875 135.4375 C-45.87113281 136.13166016 -45.86726563 136.82582031 -45.86328125 137.54101562 C-45.87336006 142.74672012 -45.87336006 142.74672012 -47 145 C-49.31 145 -51.62 145 -54 145 C-54 145.99 -54 146.98 -54 148 C-42.78 148 -31.56 148 -20 148 C-20 153.35286108 -20.26399538 157.04284086 -21.42578125 162.10546875 C-21.57403854 162.75195877 -21.72229584 163.39844879 -21.87504578 164.06452942 C-22.18813865 165.41916352 -22.50514915 166.77289769 -22.82592773 168.12573242 C-23.31303275 170.18975745 -23.78117759 172.25748757 -24.24804688 174.32617188 C-24.55615916 175.64870185 -24.8653663 176.97097734 -25.17578125 178.29296875 C-25.45333252 179.4843042 -25.73088379 180.67563965 -26.0168457 181.90307617 C-27.02330241 185.0734023 -27.63533281 186.69016272 -30 189 C-33.14990234 189.50120544 -33.14990234 189.50120544 -37.0859375 189.50170898 C-38.16201263 189.50981346 -38.16201263 189.50981346 -39.25982666 189.51808167 C-41.63197037 189.53059264 -44.0029059 189.51406366 -46.375 189.49609375 C-48.02262435 189.49624868 -49.67024906 189.49773674 -51.31787109 189.50050354 C-54.7713227 189.50188859 -58.22435952 189.48931227 -61.67773438 189.46655273 C-66.10664792 189.43816748 -70.53487212 189.44090386 -74.96383667 189.45364285 C-78.36618956 189.46059455 -81.76838282 189.45281662 -85.17071533 189.44038582 C-86.80380644 189.43586635 -88.43691465 189.43553884 -90.07000732 189.43945122 C-92.35171692 189.44235854 -94.63247329 189.42588084 -96.9140625 189.40405273 C-98.2129541 189.39864975 -99.5118457 189.39324677 -100.85009766 189.38768005 C-104 189 -104 189 -105.88142395 187.66694641 C-107.65875458 185.01829779 -108.13001294 182.26950392 -108.82421875 179.171875 C-108.97534622 178.50464417 -109.12647369 177.83741333 -109.28218079 177.14996338 C-109.59911366 175.73901654 -109.91061363 174.32683983 -110.21704102 172.91357422 C-110.68349111 170.76843632 -111.16938773 168.62842005 -111.65820312 166.48828125 C-113.07186018 160.14191354 -114 154.58150044 -114 148 C-102.78 148 -91.56 148 -80 148 C-80 147.01 -80 146.02 -80 145 C-82.31 145 -84.62 145 -87 145 C-88.52491129 141.95017742 -88.14361434 138.77877461 -88.125 135.4375 C-88.13080078 134.39045898 -88.13080078 134.39045898 -88.13671875 133.32226562 C-88.12663994 128.12663994 -88.12663994 128.12663994 -87 127 C-85.00035018 126.91241997 -82.9976389 126.89303424 -80.99609375 126.90234375 C-79.17368164 126.90717773 -79.17368164 126.90717773 -77.31445312 126.91210938 C-76.03505859 126.92048828 -74.75566406 126.92886719 -73.4375 126.9375 C-72.15423828 126.94201172 -70.87097656 126.94652344 -69.54882812 126.95117188 C-66.36583978 126.96300455 -63.18294238 126.97948932 -60 127 C-58.92729281 122.89401558 -58.92729281 122.89401558 -60.14453125 119.09375 C-60.69496094 118.5678125 -61.24539062 118.041875 -61.8125 117.5 C-66.84328366 112.13071813 -67.42711739 107.02522878 -67.234375 99.8359375 C-65.04918836 73.39517916 -39.84973902 48.57154158 -23.84716797 28.97607422 C-20.23634384 24.54827292 -16.69508554 20.07234073 -13.1875 15.5625 C-8.99789159 10.18181008 -4.62823991 5.01282145 0 0 Z M-2 16 C-3.87983836 19.80370282 -5.74927657 23.61228225 -7.60913086 27.42578125 C-8.24364418 28.7230807 -8.88100748 30.01899017 -9.52124023 31.31347656 C-10.43961629 33.17156971 -11.34771565 35.0343774 -12.25390625 36.8984375 C-12.80377197 38.01911621 -13.3536377 39.13979492 -13.92016602 40.29443359 C-14.45468384 41.63368896 -14.45468384 41.63368896 -15 43 C-14.67 43.66 -14.34 44.32 -14 45 C-6.82768692 41.42053805 -6.82768692 41.42053805 -2.28271484 35.13134766 C-0.87918394 28.85805775 -0.93787812 22.39855368 -1 16 C-1.33 16 -1.66 16 -2 16 Z M-12 22 C-11 24 -11 24 -11 24 Z M-13 24 C-47.0267205 60.90669191 -47.0267205 60.90669191 -62 106 C-60.56460273 110.55814984 -59.00074156 113.33283896 -55 116 C-54.72961914 115.43418213 -54.45923828 114.86836426 -54.18066406 114.28540039 C-48.81642558 103.06119226 -43.44655815 91.83971612 -38.0625 80.625 C-37.5675 79.59383057 -37.0725 78.56266113 -36.5625 77.50024414 C-33.99521504 72.15297765 -31.42628212 66.80650853 -28.85546875 61.4609375 C-26.35390155 56.25903667 -23.85973729 51.05362785 -21.36767578 45.84716797 C-20.06475858 43.13481159 -18.75059485 40.42819545 -17.43359375 37.72265625 C-16.68467005 36.16937968 -15.93595641 34.61600179 -15.1875 33.0625 C-14.67171387 32.01545898 -14.67171387 32.01545898 -14.14550781 30.94726562 C-13.3695912 29.32587317 -12.67532511 27.66580194 -12 26 C-12.495 25.01 -12.495 25.01 -13 24 Z M-22 57 C-25.91403533 62.23553222 -28.30153 68.32104767 -30.8125 74.3125 C-31.52072065 75.9148321 -32.23291993 77.51541125 -32.94897461 79.11425781 C-34.35442916 82.26781137 -35.7376187 85.42948828 -37.09960938 88.60205078 C-39.23316177 93.56434747 -41.47844065 98.46997898 -43.73901367 103.37573242 C-45.5180187 107.23926798 -47.26023731 111.11866211 -49 115 C-48.34 115.33 -47.68 115.66 -47 116 C-31.11936939 106.4265702 -19.04250629 90.58068571 -13 73 C-14.39195915 70.2160817 -16.15575779 70.02101003 -19 69 C-17.67374912 65.60098577 -15.6313568 63.57720709 -12.9621582 61.1418457 C-7.29011239 56.1886962 -7.29011239 56.1886962 -4.8125 49.3125 C-4.874375 48.219375 -4.93625 47.12625 -5 46 C-10.80209298 46 -18.05071276 53.05918279 -22 57 Z M-82 132 C-82 134.64 -82 137.28 -82 140 C-79.69 140 -77.38 140 -75 140 C-75 144.29 -75 148.58 -75 153 C-85.89 153 -96.78 153 -108 153 C-107.401875 155.908125 -106.80375 158.81625 -106.1875 161.8125 C-106.00598389 162.70428955 -105.82446777 163.5960791 -105.63745117 164.51489258 C-104.33208879 170.78375458 -102.69365058 176.78994786 -101 183 C-78.56 183 -56.12 183 -33 183 C-30.69 173.1 -28.38 163.2 -26 153 C-36.89 153 -47.78 153 -59 153 C-59 148.71 -59 144.42 -59 140 C-56.69 140 -54.38 140 -52 140 C-52 137.36 -52 134.72 -52 132 C-53.65 132 -55.3 132 -57 132 C-57.46897705 132.96824707 -57.9379541 133.93649414 -58.42114258 134.93408203 C-60.17076289 138.54608246 -61.92087988 142.15784206 -63.67114258 145.76953125 C-64.42681079 147.32903647 -65.18234652 148.88860588 -65.93774414 150.44824219 C-67.02715304 152.69743709 -68.1170472 154.94639628 -69.20703125 157.1953125 C-69.54152786 157.8861795 -69.87602448 158.57704651 -70.22065735 159.28884888 C-72.12005343 163.20643733 -74.04442448 167.11001892 -76 171 C-77.32 171 -78.64 171 -80 171 C-79.36725832 166.35353138 -77.46784881 162.47862015 -75.40234375 158.328125 C-75.04862198 157.60510193 -74.69490021 156.88207886 -74.33045959 156.137146 C-73.20492407 153.83870719 -72.07161829 151.54421426 -70.9375 149.25 C-69.80116556 146.94086863 -68.66647679 144.63094911 -67.53382874 142.32000732 C-66.82960277 140.88427376 -66.12298477 139.44971063 -65.4138031 138.01641846 C-63.73536329 135.13631115 -63.73536329 135.13631115 -63 132 C-69.27 132 -75.54 132 -82 132 Z " fill="#ffffff" transform="translate(147,2)"/>
<path d="M0 0 C1.75994274 3.16789693 2.24872886 5.24364431 3 9 C7.29 9.33 11.58 9.66 16 10 C16 9.34 16 8.68 16 8 C10.555 7.505 10.555 7.505 5 7 C5 5.35 5 3.7 5 2 C7.64 2 10.28 2 13 2 C13 2.33 13 2.66 13 3 C10.69 3 8.38 3 6 3 C6 3.99 6 4.98 6 6 C17.22 6 28.44 6 40 6 C40 11.35286108 39.73600462 15.04284086 38.57421875 20.10546875 C38.42596146 20.75195877 38.27770416 21.39844879 38.12495422 22.06452942 C37.81186135 23.41916352 37.49485085 24.77289769 37.17407227 26.12573242 C36.68696725 28.18975745 36.21882241 30.25748757 35.75195312 32.32617188 C35.44384084 33.64870185 35.1346337 34.97097734 34.82421875 36.29296875 C34.54666748 37.4843042 34.26911621 38.67563965 33.9831543 39.90307617 C32.97669759 43.0734023 32.36466719 44.69016272 30 47 C26.85009766 47.50120544 26.85009766 47.50120544 22.9140625 47.50170898 C22.19667908 47.50711197 21.47929565 47.51251495 20.74017334 47.51808167 C18.36802963 47.53059264 15.9970941 47.51406366 13.625 47.49609375 C11.97737565 47.49624868 10.32975094 47.49773674 8.68212891 47.50050354 C5.2286773 47.50188859 1.77564048 47.48931227 -1.67773438 47.46655273 C-6.10664792 47.43816748 -10.53487212 47.44090386 -14.96383667 47.45364285 C-18.36618956 47.46059455 -21.76838282 47.45281662 -25.17071533 47.44038582 C-26.80380644 47.43586635 -28.43691465 47.43553884 -30.07000732 47.43945122 C-32.35171692 47.44235854 -34.63247329 47.42588084 -36.9140625 47.40405273 C-38.2129541 47.39864975 -39.5118457 47.39324677 -40.85009766 47.38768005 C-44 47 -44 47 -45.88716125 45.64024353 C-47.49355532 43.27253528 -47.9754797 40.98018719 -48.60546875 38.1953125 C-48.86650391 37.05449219 -49.12753906 35.91367188 -49.39648438 34.73828125 C-49.65751953 33.54589844 -49.91855469 32.35351562 -50.1875 31.125 C-50.46013672 29.94035156 -50.73277344 28.75570312 -51.01367188 27.53515625 C-53.17519617 17.92477003 -53.17519617 17.92477003 -53 13 C-51.68 13.33 -50.36 13.66 -49 14 C-48.67 13.01 -48.34 12.02 -48 11 C-47.38925204 13.18567164 -46.78689763 15.37368843 -46.1875 17.5625 C-45.85105469 18.78066406 -45.51460937 19.99882812 -45.16796875 21.25390625 C-43.56046291 27.78607882 -42.31928526 34.4035737 -41 41 C-18.56 41 3.88 41 27 41 C27.66 37.04 28.32 33.08 29 29 C29.67812931 25.90139452 30.37105117 22.82825263 31.125 19.75 C31.74375 17.1925 32.3625 14.635 33 12 C22.44 11.67 11.88 11.34 1 11 C-0.20272819 8.59454362 -0.10071472 7.05003047 -0.0625 4.375 C-0.05347656 3.55773437 -0.04445312 2.74046875 -0.03515625 1.8984375 C-0.02355469 1.27195313 -0.01195312 0.64546875 0 0 Z " fill="#ffffff" transform="translate(87,144)"/>
<path d="M0 0 C0.495 0.99 0.495 0.99 1 2 C0.28735352 3.97119141 0.28735352 3.97119141 -0.87109375 6.3515625 C-1.28037109 7.20234375 -1.68964844 8.053125 -2.11132812 8.9296875 C-2.54896484 9.81914063 -2.98660156 10.70859375 -3.4375 11.625 C-3.87126953 12.5221875 -4.30503906 13.419375 -4.75195312 14.34375 C-5.82758187 16.56592806 -6.91289732 18.78341247 -8 21 C-5.36 19.02 -2.72 17.04 0 15 C0.66 15.33 1.32 15.66 2 16 C-0.0072908 19.0109362 -0.83884224 19.63016497 -4 21 C-4 21.66 -4 22.32 -4 23 C-3.01 23.33 -2.02 23.66 -1 24 C-3.12058145 25.67257128 -5.24604076 27.33815418 -7.375 29 C-7.97828125 29.47695313 -8.5815625 29.95390625 -9.203125 30.4453125 C-13.7734375 34 -13.7734375 34 -16 34 C-16.35835937 35.20011719 -16.71671875 36.40023437 -17.0859375 37.63671875 C-19.09454806 43.65432805 -21.89134581 49.25523709 -24.69744873 54.93447876 C-26.27437238 58.12728998 -27.8327355 61.32911815 -29.390625 64.53125 C-29.6998288 65.16617874 -30.00903259 65.80110748 -30.3276062 66.45527649 C-34.41694871 74.88011388 -38.22841522 83.42912348 -42 92 C-26.32826965 84.81853742 -17.28708644 70.0732884 -10 55 C-8.68 55.99 -7.36 56.98 -6 58 C-6 57.34 -6 56.68 -6 56 C-5.01 55.67 -4.02 55.34 -3 55 C-8.00822399 71.34896198 -21.24937694 88.6755684 -35.9375 97.5625 C-39 99 -39 99 -42 99 C-41.67 97.68 -41.34 96.36 -41 95 C-42.32 95 -43.64 95 -45 95 C-45 94.34 -45 93.68 -45 93 C-46.32 93 -47.64 93 -49 93 C-48.42189469 89.58710884 -47.57393758 86.76623779 -46.04150391 83.66650391 C-45.63624985 82.83938904 -45.23099579 82.01227417 -44.8134613 81.16009521 C-44.3722847 80.27452942 -43.93110809 79.38896362 -43.4765625 78.4765625 C-43.01915176 77.54652405 -42.56174103 76.6164856 -42.09046936 75.65826416 C-40.60712014 72.64461169 -39.1159784 69.63488411 -37.625 66.625 C-36.10145535 63.53282371 -34.58004435 60.43960358 -33.05870056 57.34634399 C-32.06218985 55.32060256 -31.06501234 53.295189 -30.06715393 51.27011108 C-26.56374729 44.15880146 -23.09544434 37.0326522 -19.6875 29.875 C-19.07612183 28.5912146 -19.07612183 28.5912146 -18.45239258 27.28149414 C-17.29938152 24.85537168 -16.14934646 22.42786035 -15 20 C-14.11727185 18.1392829 -13.23445728 16.27860679 -12.3515625 14.41796875 C-10.2310841 9.94686393 -8.11432562 5.47401742 -6 1 C-5.34 1.33 -4.68 1.66 -4 2 C-4 2.66 -4 3.32 -4 4 C-3.34 4 -2.68 4 -2 4 C-2 3.01 -2 2.02 -2 1 C-1.34 0.67 -0.68 0.34 0 0 Z " fill="#ffffff" transform="translate(141,25)"/>
<path d="M0 0 C1 3 1 3 0 5.0625 C-0.33 5.701875 -0.66 6.34125 -1 7 C-0.505 7.99 -0.505 7.99 0 9 C-5.87077476 16.92138226 -11.77776133 24.78784905 -18 32.4375 C-39.27579644 58.16339064 -39.27579644 58.16339064 -50 89 C-50.33 89 -50.66 89 -51 89 C-52 81.25 -52 81.25 -52 79 C-52.99 80.32 -53.98 81.64 -55 83 C-54.442862 77.98575801 -52.78229129 73.93962971 -50.5 69.5 C-50.14542725 68.80293945 -49.79085449 68.10587891 -49.42553711 67.38769531 C-43.41668042 55.80340766 -35.99746904 45.29377203 -28 35 C-27.58524414 34.46439453 -27.17048828 33.92878906 -26.74316406 33.37695312 C-20.2347987 24.98316966 -13.56236692 16.72527499 -6.84765625 8.49609375 C-4.54797112 5.67759113 -2.26644862 2.84534875 0 0 Z " fill="#ffffff" transform="translate(136,15)"/>
<path d="M0 0 C1.75994274 3.16789693 2.24872886 5.24364431 3 9 C7.29 9.33 11.58 9.66 16 10 C16 9.34 16 8.68 16 8 C12.37 7.67 8.74 7.34 5 7 C5 5.35 5 3.7 5 2 C7.64 2 10.28 2 13 2 C13 2.33 13 2.66 13 3 C10.69 3 8.38 3 6 3 C6 3.99 6 4.98 6 6 C17.22 6 28.44 6 40 6 C40 11.1650144 39.8392465 14.5481553 38.6875 19.37109375 C38.41679688 20.52158203 38.14609375 21.67207031 37.8671875 22.85742188 C37.43792969 24.62956055 37.43792969 24.62956055 37 26.4375 C36.57074219 28.25024414 36.57074219 28.25024414 36.1328125 30.09960938 C35.42881435 33.06813492 34.71768918 36.03476027 34 39 C33.67 39 33.34 39 33 39 C33 36.69 33 34.38 33 32 C31.02 32.495 31.02 32.495 29 33 C29.7154583 25.70232531 31.31082044 19.31977808 33 12 C22.44 11.67 11.88 11.34 1 11 C-0.20272819 8.59454362 -0.10071472 7.05003047 -0.0625 4.375 C-0.05347656 3.55773437 -0.04445313 2.74046875 -0.03515625 1.8984375 C-0.02355469 1.27195313 -0.01195313 0.64546875 0 0 Z " fill="#ffffff" transform="translate(87,144)"/>
<path d="M0 0 C1.32 0.33 2.64 0.66 4 1 C4.05899621 4.77076545 4.09392568 8.54140926 4.125 12.3125 C4.14175781 13.36501953 4.15851563 14.41753906 4.17578125 15.50195312 C4.21920196 22.55781803 3.5223667 29.10987473 2 36 C0.515 36.495 0.515 36.495 -1 37 C-1 34 -1 34 -0.4375 31.875 C-0.2209375 30.946875 -0.2209375 30.946875 0 30 C-0.33 29.67 -0.66 29.34 -1 29 C-1.23363881 27.15108054 -1.41303635 25.29511969 -1.5625 23.4375 C-1.64628906 22.42558594 -1.73007813 21.41367187 -1.81640625 20.37109375 C-1.87699219 19.58863281 -1.93757812 18.80617188 -2 18 C-2.61875 18.99 -3.2375 19.98 -3.875 21 C-4.57625 21.99 -5.2775 22.98 -6 24 C-6.66 24 -7.32 24 -8 24 C-8 24.99 -8 25.98 -8 27 C-8.66 27 -9.32 27 -10 27 C-12.25494431 20.65796913 -12.14917367 17.51393755 -9.421875 11.49609375 C-6.92964707 7.12100132 -3.49713217 3.5905022 0 0 Z " fill="#ffffff" transform="translate(147,2)"/>
<path d="M0 0 C1.4540625 0.0309375 1.4540625 0.0309375 2.9375 0.0625 C1.59642585 4.34431521 -0.03813397 8.30838663 -1.99609375 12.34375 C-2.56263672 13.51550781 -3.12917969 14.68726563 -3.71289062 15.89453125 C-4.30854312 17.11721217 -4.90424665 18.33986822 -5.5 19.5625 C-6.09212244 20.78499861 -6.68392205 22.00765365 -7.27539062 23.23046875 C-8.86505222 26.5108374 -10.45800504 29.78936156 -12.0625 33.0625 C-12.83219116 34.69928711 -12.83219116 34.69928711 -13.61743164 36.36914062 C-15.16164912 39.24729694 -16.03022291 40.01688721 -19.0625 41.0625 C-19.7225 40.4025 -20.3825 39.7425 -21.0625 39.0625 C-20.73468065 34.44571087 -18.51529405 30.47740469 -16.5 26.390625 C-16.1486499 25.66760193 -15.7972998 24.94457886 -15.43530273 24.199646 C-14.69492572 22.67881493 -13.95178671 21.15932572 -13.20605469 19.64111328 C-12.06091053 17.30926337 -10.92429256 14.9734088 -9.7890625 12.63671875 C-9.06819994 11.15861431 -8.3468624 9.68074141 -7.625 8.203125 C-7.28331787 7.50213684 -6.94163574 6.80114868 -6.58959961 6.07891846 C-3.63575131 0.07419901 -3.63575131 0.07419901 0 0 Z " fill="#ffffff" transform="translate(87.0625,133.9375)"/>
<path d="M0 0 C0.66 0 1.32 0 2 0 C2 2.64 2 5.28 2 8 C4.97 8 7.94 8 11 8 C11 12.29 11 16.58 11 21 C-0.22 21 -11.44 21 -23 21 C-23 21.99 -23 22.98 -23 24 C-24.65 23.67 -26.3 23.34 -28 23 C-28.042721 21.33388095 -28.04063832 19.66617115 -28 18 C-27 17 -27 17 -23.76538086 16.88647461 C-22.33185874 16.88663369 -20.89833088 16.89232593 -19.46484375 16.90234375 C-18.33496788 16.90446617 -18.33496788 16.90446617 -17.18226624 16.90663147 C-14.7673044 16.91224624 -12.35243399 16.92480117 -9.9375 16.9375 C-8.30403779 16.9425131 -6.67057414 16.94707634 -5.03710938 16.95117188 C-1.02470415 16.96222046 2.98763241 16.97949494 7 17 C7 15.35 7 13.7 7 12 C4.69 11.34 2.38 10.68 0 10 C0 6.7 0 3.4 0 0 Z " fill="#ffffff" transform="translate(61,134)"/>
<path d="M0 0 C2.53492189 2.53492189 2.72050312 4.32832685 3.5078125 7.8125 C3.77207031 8.97007812 4.03632812 10.12765625 4.30859375 11.3203125 C4.57800781 12.53460938 4.84742188 13.74890625 5.125 15 C5.40214844 16.21429688 5.67929687 17.42859375 5.96484375 18.6796875 C8 27.68249692 8 27.68249692 8 30 C30.44 30 52.88 30 76 30 C76.33 27.36 76.66 24.72 77 22 C77.33 22 77.66 22 78 22 C78 24.97 78 27.94 78 31 C68.77732913 31.06941953 59.55474778 31.12277008 50.33187294 31.15543652 C46.04960548 31.17111243 41.76751636 31.19238549 37.48535156 31.22631836 C33.3551088 31.25884364 29.22503789 31.2768385 25.09467697 31.28463173 C23.51654732 31.29018758 21.93842739 31.30103646 20.36037064 31.31719017 C18.15491439 31.33887438 15.95017408 31.34197082 13.74462891 31.34057617 C11.85932968 31.35056892 11.85932968 31.35056892 9.9359436 31.36076355 C8.96708221 31.24171158 7.99822083 31.12265961 7 31 C4.81024227 27.71536341 4.00193437 24.79303725 3 21 C3 24.96 3 28.92 3 33 C0.56034584 28.12069168 -0.44221112 23.36098159 -1.625 18.0625 C-1.85445312 17.07314453 -2.08390625 16.08378906 -2.3203125 15.06445312 C-2.536875 14.10603516 -2.7534375 13.14761719 -2.9765625 12.16015625 C-3.17330566 11.29011963 -3.37004883 10.42008301 -3.57275391 9.52368164 C-4.00577237 6.96590345 -4.07604933 4.58886999 -4 2 C-2.68 2.33 -1.36 2.66 0 3 C0 2.01 0 1.02 0 0 Z " fill="#ffffff" transform="translate(38,155)"/>
<path d="M0 0 C0.33 0.66 0.66 1.32 1 2 C0.19555664 4.06298828 0.19555664 4.06298828 -1.08984375 6.5703125 C-1.54423828 7.46621094 -1.99863281 8.36210938 -2.46679688 9.28515625 C-3.19479492 10.69087891 -3.19479492 10.69087891 -3.9375 12.125 C-4.41896484 13.06988281 -4.90042969 14.01476563 -5.39648438 14.98828125 C-6.59061095 17.32924226 -7.79202599 19.66616264 -9 22 C-8.01 22.99 -7.02 23.98 -6 25 C-6.99 25.33 -7.98 25.66 -9 26 C-9 26.66 -9 27.32 -9 28 C-9.66 28 -10.32 28 -11 28 C-11 28.66 -11 29.32 -11 30 C-14.08809695 31.76462683 -15.23312136 32 -19 32 C-18.43467077 27.50665787 -17.2655976 24.00553616 -15.27734375 19.9453125 C-14.47006836 18.28242187 -14.47006836 18.28242187 -13.64648438 16.5859375 C-13.08251953 15.44382812 -12.51855469 14.30171875 -11.9375 13.125 C-11.36966797 11.9596875 -10.80183594 10.794375 -10.21679688 9.59375 C-8.81804825 6.7257276 -7.41227112 3.86138134 -6 1 C-5.34 1.33 -4.68 1.66 -4 2 C-4 2.66 -4 3.32 -4 4 C-3.34 4 -2.68 4 -2 4 C-2 3.01 -2 2.02 -2 1 C-1.34 0.67 -0.68 0.34 0 0 Z " fill="#ffffff" transform="translate(141,25)"/>
<path d="M0 0 C0 0.66 0 1.32 0 2 C0.66 2.33 1.32 2.66 2 3 C1.34 4.65 0.68 6.3 0 8 C0.99 8.66 1.98 9.32 3 10 C2.25531915 17.74468085 2.25531915 17.74468085 -1 21 C-1.66 21 -2.32 21 -3 21 C-3 21.66 -3 22.32 -3 23 C-3.99 22.67 -4.98 22.34 -6 22 C-5.67 19.36 -5.34 16.72 -5 14 C-7.475 13.01 -7.475 13.01 -10 12 C-10 8 -10 8 -8.3203125 5.859375 C-7.23363281 4.81523438 -7.23363281 4.81523438 -6.125 3.75 C-5.04605469 2.69039062 -5.04605469 2.69039062 -3.9453125 1.609375 C-2 0 -2 0 0 0 Z " fill="#ffffff" transform="translate(138,60)"/>
<path d="M0 0 C1 3 1 3 0.00636292 5.15812683 C-2.94725333 7.86959367 -5.1372834 7.48783437 -9.10180664 7.4699707 C-9.82079636 7.4721611 -10.53978607 7.4743515 -11.28056335 7.47660828 C-13.65756199 7.47892019 -16.03332273 7.45266254 -18.41015625 7.42578125 C-20.06017158 7.42085835 -21.71019248 7.41755882 -23.36021423 7.41581726 C-26.81787961 7.40817482 -30.2751314 7.38760599 -33.73266602 7.35668945 C-38.17047086 7.31708347 -42.60800663 7.29907616 -47.04596806 7.28938007 C-51.27156743 7.27941792 -55.49710073 7.25952041 -59.72265625 7.23828125 C-60.93693141 7.23318763 -60.93693141 7.23318763 -62.17573738 7.2279911 C-64.45976802 7.21644324 -66.74362626 7.19792719 -69.02758789 7.17700195 C-70.97925621 7.16223564 -70.97925621 7.16223564 -72.97035217 7.14717102 C-76 7 -76 7 -78 6 C-78 5.34 -78 4.68 -78 4 C-52.59 4 -27.18 4 -1 4 C-0.67 2.68 -0.34 1.36 0 0 Z " fill="#ffffff" transform="translate(119,184)"/>
<path d="M0 0 C0.33 0 0.66 0 1 0 C1.50324245 6.2204067 -0.08527206 10.33457196 -2.8125 15.875 C-3.16892578 16.64585938 -3.52535156 17.41671875 -3.89257812 18.2109375 C-5.90852717 22.41298908 -5.90852717 22.41298908 -7 24 C-7.99 24.33 -8.98 24.66 -10 25 C-11.20882096 27.00016466 -11.20882096 27.00016466 -12 29 C-12.66 29 -13.32 29 -14 29 C-14.8649473 22.57776627 -11.78898097 17.68788636 -9 12.125 C-8.52304688 11.15046875 -8.04609375 10.1759375 -7.5546875 9.171875 C-6.38018157 6.77588291 -5.19510731 4.38576475 -4 2 C-2.68 2 -1.36 2 0 2 C0 1.34 0 0.68 0 0 Z " fill="#ffffff" transform="translate(108,88)"/>
<path d="M0 0 C1.65 0.33 3.3 0.66 5 1 C5 5.95 5 10.9 5 16 C2.36 16 -0.28 16 -3 16 C-3 17.65 -3 19.3 -3 21 C0.96 21 4.92 21 9 21 C8.67 21.99 8.34 22.98 8 24 C3.71 24 -0.58 24 -5 24 C-6.61737724 19.14786828 -7.22942798 16.81798756 -7 12 C-4.36 12 -1.72 12 1 12 C0.67 8.04 0.34 4.08 0 0 Z " fill="#ffffff" transform="translate(95,130)"/>
<path d="M0 0 C0.33 0.99 0.66 1.98 1 3 C-0.28062485 4.7074998 -1.61767557 6.37373596 -3 8 C-3.33 8.99 -3.66 9.98 -4 11 C-3.01 11.33 -2.02 11.66 -1 12 C-12.89606742 23 -12.89606742 23 -19 23 C-18.67 21.68 -18.34 20.36 -18 19 C-19.32 19 -20.64 19 -22 19 C-22 18.34 -22 17.68 -22 17 C-23.32 17 -24.64 17 -26 17 C-25.67 15.35 -25.34 13.7 -25 12 C-24.67 13.32 -24.34 14.64 -24 16 C-22.68 14.68 -21.36 13.36 -20 12 C-19.34 12.33 -18.68 12.66 -18 13 C-18 13.99 -18 14.98 -18 16 C-11.41381743 11.97511065 -3.55926051 7.11852103 0 0 Z " fill="#ffffff" transform="translate(118,101)"/>
<path d="M0 0 C0.33 0.66 0.66 1.32 1 2 C0.67 2.99 0.34 3.98 0 5 C0.66 5 1.32 5 2 5 C2.33 4.01 2.66 3.02 3 2 C3.66 2 4.32 2 5 2 C3.88952704 4.9901798 2.60838695 7.81813755 1.125 10.63671875 C-2.72224692 17.95008346 -6.19532388 24.63136832 -7 33 C-7.33 33 -7.66 33 -8 33 C-9 25.25 -9 25.25 -9 23 C-9.99 24.32 -10.98 25.64 -12 27 C-11.44686437 21.64464139 -9.5721109 17.63437415 -7.125 12.9375 C-6.77308594 12.24333984 -6.42117187 11.54917969 -6.05859375 10.83398438 C-4.16922955 7.13602806 -2.18934005 3.5318599 0 0 Z " fill="#ffffff" transform="translate(93,71)"/>
<path d="M0 0 C1.12591553 0.00523682 2.25183105 0.01047363 3.41186523 0.01586914 C4.62680664 0.0190918 5.84174805 0.02231445 7.09350586 0.02563477 C8.37290039 0.03401367 9.65229492 0.04239258 10.97045898 0.05102539 C12.2537207 0.05553711 13.53698242 0.06004883 14.85913086 0.06469727 C18.04211921 0.07652994 21.22501661 0.09301471 24.40795898 0.11352539 C24.40795898 0.44352539 24.40795898 0.77352539 24.40795898 1.11352539 C16.48795898 1.11352539 8.56795898 1.11352539 0.40795898 1.11352539 C1.39795898 2.10352539 2.38795898 3.09352539 3.40795898 4.11352539 C3.48217773 6.37524414 3.48217773 6.37524414 3.09545898 8.80102539 C2.97557617 9.60926758 2.85569336 10.41750977 2.73217773 11.25024414 C2.62518555 11.86512695 2.51819336 12.48000977 2.40795898 13.11352539 C1.74795898 13.11352539 1.08795898 13.11352539 0.40795898 13.11352539 C0.40795898 10.47352539 0.40795898 7.83352539 0.40795898 5.11352539 C-0.25204102 5.11352539 -0.91204102 5.11352539 -1.59204102 5.11352539 C-1.26204102 8.41352539 -0.93204102 11.71352539 -0.59204102 15.11352539 C1.38795898 15.77352539 3.36795898 16.43352539 5.40795898 17.11352539 C5.40795898 18.76352539 5.40795898 20.41352539 5.40795898 22.11352539 C-11.91704102 22.60852539 -11.91704102 22.60852539 -29.59204102 23.11352539 C-29.59204102 22.45352539 -29.59204102 21.79352539 -29.59204102 21.11352539 C-18.37204102 21.11352539 -7.15204102 21.11352539 4.40795898 21.11352539 C4.40795898 20.12352539 4.40795898 19.13352539 4.40795898 18.11352539 C2.09795898 18.11352539 -0.21204102 18.11352539 -2.59204102 18.11352539 C-4.11695231 15.06370281 -3.73565536 11.8923 -3.71704102 8.55102539 C-3.7228418 7.50398437 -3.7228418 7.50398437 -3.72875977 6.43579102 C-3.71659097 0.16277807 -3.71659097 0.16277807 0 0 Z " fill="#ffffff" transform="translate(62.592041015625,128.886474609375)"/>
<path d="M0 0 C0.99 0 1.98 0 3 0 C3.05899621 3.77076545 3.09392568 7.54140926 3.125 11.3125 C3.14175781 12.36501953 3.15851563 13.41753906 3.17578125 14.50195312 C3.21920196 21.55781803 2.5223667 28.10987473 1 35 C-0.485 35.495 -0.485 35.495 -2 36 C-2 33 -2 33 -1.4375 30.875 C-1.2209375 29.946875 -1.2209375 29.946875 -1 29 C-1.33 28.67 -1.66 28.34 -2 28 C-2.08713831 26.29227642 -2.10700007 24.58101351 -2.09765625 22.87109375 C-2.09443359 21.83662109 -2.09121094 20.80214844 -2.08789062 19.73632812 C-2.07532227 18.1034082 -2.07532227 18.1034082 -2.0625 16.4375 C-2.05798828 15.34501953 -2.05347656 14.25253906 -2.04882812 13.12695312 C-2.03699826 10.41791505 -2.02051543 7.70898401 -2 5 C-1.01 4.67 -0.02 4.34 1 4 C0.67 2.68 0.34 1.36 0 0 Z " fill="#ffffff" transform="translate(148,3)"/>
<path d="M0 0 C0.5534764 2.07553648 1 3.84365964 1 6 C1.66 6 2.32 6 3 6 C3 6.66 3 7.32 3 8 C-0.34386398 9.01085428 -3.3748118 9.11543463 -6.859375 9.09765625 C-7.97441406 9.09443359 -9.08945313 9.09121094 -10.23828125 9.08789062 C-11.39714844 9.07951172 -12.55601563 9.07113281 -13.75 9.0625 C-14.92433594 9.05798828 -16.09867188 9.05347656 -17.30859375 9.04882812 C-20.20578072 9.03705094 -23.10286454 9.02060326 -26 9 C-26.66666667 7.66666667 -27.33333333 6.33333333 -28 5 C-20.08 5 -12.16 5 -4 5 C-4 3.68 -4 2.36 -4 1 C-2.68 0.67 -1.36 0.34 0 0 Z " fill="#ffffff" transform="translate(91,125)"/>
<path d="M0 0 C0.66 1.32 1.32 2.64 2 4 C1.67 4.33 1.34 4.66 1 5 C1.20322462 7.11176888 1.48832974 9.21588804 1.8125 11.3125 C1.98394531 12.46363281 2.15539062 13.61476563 2.33203125 14.80078125 C2.91669906 17.60103235 3.69342837 19.50563599 5 22 C4.625 24.25 4.625 24.25 4 26 C1 26 1 26 -0.5625 24.875 C-4.70752363 19.46844743 -4.83249969 12.53415454 -4 6 C-2.91883102 3.54151576 -1.77706587 2.05473242 0 0 Z " fill="#ffffff" transform="translate(84,93)"/>
<path d="M0 0 C1.22744711 3.45429105 1.00307297 5.51031289 -0.43359375 8.76953125 C-1.08769077 10.12397457 -1.75612815 11.47157046 -2.4375 12.8125 C-2.77587891 13.50537109 -3.11425781 14.19824219 -3.46289062 14.91210938 C-4.29630207 16.61414682 -5.14651924 18.30793715 -6 20 C-6.66 19.01 -7.32 18.02 -8 17 C-8.99 17 -9.98 17 -11 17 C-9.37319894 11.38014179 -6.96273034 6.04233913 -4 1 C-2 0 -2 0 0 0 Z " fill="#ffffff" transform="translate(116,73)"/>
<path d="M0 0 C1.32 0.33 2.64 0.66 4 1 C3.67 2.65 3.34 4.3 3 6 C3.99 6 4.98 6 6 6 C6.33 6.99 6.66 7.98 7 9 C6.01 9 5.02 9 4 9 C4 9.66 4 10.32 4 11 C3.34 11 2.68 11 2 11 C2 11.66 2 12.32 2 13 C-1.08809695 14.76462683 -2.23312136 15 -6 15 C-5.54979057 9.14727744 -2.96160773 4.91779881 0 0 Z " fill="#ffffff" transform="translate(128,42)"/>
<path d="M0 0 C1.98 0 3.96 0 6 0 C4.35433477 5.68502535 1.70967216 10.76681636 -1 16 C-2.65 15.67 -4.3 15.34 -6 15 C-5.54979057 9.14727744 -2.96160773 4.91779881 0 0 Z " fill="#ffffff" transform="translate(84,134)"/>
<path d="M0 0 C0.33 0.99 0.66 1.98 1 3 C1.99 3 2.98 3 4 3 C3.4674855 7.00787229 2.41108236 9.21868009 -0.25 12.25 C-0.83265625 12.93578125 -1.4153125 13.6215625 -2.015625 14.328125 C-4.33918365 16.2857689 -6.01763964 16.65034396 -9 17 C-7.85774093 13.04602629 -6.85890266 10.85890266 -4 8 C-2.96157435 5.68351201 -1.9578025 3.35096976 -1 1 C-0.67 0.67 -0.34 0.34 0 0 Z " fill="#ffffff" transform="translate(122,96)"/>
<path d="M0 0 C0.66 0.33 1.32 0.66 2 1 C1.58789699 6.25431335 0.7645482 9.2354518 -3 13 C-3.99 13.33 -4.98 13.66 -6 14 C-6.33 14.66 -6.66 15.32 -7 16 C-7.66 16 -8.32 16 -9 16 C-8.73147898 9.55549559 -6.34253164 5.72264714 -2 1 C-1.34 0.67 -0.68 0.34 0 0 Z " fill="#ffffff" transform="translate(102,60)"/>
<path d="M0 0 C1.21420247 3.64260741 0.67142794 5.2725974 -0.21484375 8.98046875 C-0.48876953 10.14384766 -0.76269531 11.30722656 -1.04492188 12.50585938 C-1.33947266 13.72080078 -1.63402344 14.93574219 -1.9375 16.1875 C-2.22818359 17.41404297 -2.51886719 18.64058594 -2.81835938 19.90429688 C-3.53841675 22.93798124 -4.26590585 25.96968719 -5 29 C-5.33 29 -5.66 29 -6 29 C-6 26.69 -6 24.38 -6 22 C-7.32 22.33 -8.64 22.66 -10 23 C-9.67 20.36 -9.34 17.72 -9 15 C-8.67 16.32 -8.34 17.64 -8 19 C-7.01 19 -6.02 19 -5 19 C-4.87625 18.071875 -4.7525 17.14375 -4.625 16.1875 C-4.13524221 12.82817543 -3.6170699 9.47425286 -3.0625 6.125 C-2.90910156 5.17882812 -2.75570312 4.23265625 -2.59765625 3.2578125 C-2.40042969 2.51273438 -2.20320313 1.76765625 -2 1 C-1.34 0.67 -0.68 0.34 0 0 Z " fill="#ffffff" transform="translate(126,154)"/>
<path d="M0 0 C0.66 0.33 1.32 0.66 2 1 C-0.0072908 4.0109362 -0.83884224 4.63016497 -4 6 C-4 6.66 -4 7.32 -4 8 C-3.01 8.33 -2.02 8.66 -1 9 C-3.12058145 10.67257128 -5.24604076 12.33815418 -7.375 14 C-8.27992188 14.71542969 -8.27992188 14.71542969 -9.203125 15.4453125 C-13.7734375 19 -13.7734375 19 -16 19 C-16.33 19.66 -16.66 20.32 -17 21 C-17.33 20.34 -17.66 19.68 -18 19 C-18.99 19 -19.98 19 -21 19 C-20.34 17.68 -19.68 16.36 -19 15 C-19 15.66 -19 16.32 -19 17 C-18.236875 16.67 -17.47375 16.34 -16.6875 16 C-14 15 -14 15 -11 15 C-11 14.34 -11 13.68 -11 13 C-10.34 13 -9.68 13 -9 13 C-9 12.34 -9 11.68 -9 11 C-8.34 10.67 -7.68 10.34 -7 10 C-7 9.34 -7 8.68 -7 8 C-7.66 7.67 -8.32 7.34 -9 7 C-6.03 4.69 -3.06 2.38 0 0 Z " fill="#ffffff" transform="translate(141,40)"/>
<path d="M0 0 C2.31 0.66 4.62 1.32 7 2 C6.25531915 9.74468085 6.25531915 9.74468085 3 13 C2.34 13 1.68 13 1 13 C1 13.66 1 14.32 1 15 C0.01 14.67 -0.98 14.34 -2 14 C-1.67 13.01 -1.34 12.02 -1 11 C-0.34 11 0.32 11 1 11 C1.08927756 7.78600767 0.8534403 5.0937211 0 2 C0 1.34 0 0.68 0 0 Z " fill="#ffffff" transform="translate(134,68)"/>
<path d="M0 0 C1.65 0.33 3.3 0.66 5 1 C4.35155914 5.19283118 3.48783354 9.26499921 2.4375 13.375 C2.16808594 14.43460938 1.89867188 15.49421875 1.62109375 16.5859375 C1.41613281 17.38257812 1.21117188 18.17921875 1 19 C0.67 19 0.34 19 0 19 C-1 11.25 -1 11.25 -1 9 C-1.99 10.32 -2.98 11.64 -4 13 C-3.40895235 8.15340923 -2.02055843 4.39251833 0 0 Z " fill="#ffffff" transform="translate(85,85)"/>
<path d="M0 0 C0.33 0.66 0.66 1.32 1 2 C0.67 2.99 0.34 3.98 0 5 C0.66 5 1.32 5 2 5 C2.33 3.68 2.66 2.36 3 1 C3.71484375 2.671875 3.71484375 2.671875 4 5 C2.56640625 7.578125 2.56640625 7.578125 0.5625 10.25 C-0.42556641 11.58804688 -0.42556641 11.58804688 -1.43359375 12.953125 C-1.95050781 13.62859375 -2.46742187 14.3040625 -3 15 C-6 11.375 -6 11.375 -6 8 C-4.6875 5.95703125 -4.6875 5.95703125 -3 3.8125 C-2.443125 3.09707031 -1.88625 2.38164063 -1.3125 1.64453125 C-0.879375 1.10183594 -0.44625 0.55914062 0 0 Z " fill="#ffffff" transform="translate(108,50)"/>
<path d="M0 0 C0.33 0.99 0.66 1.98 1 3 C-0.28062485 4.7074998 -1.61767557 6.37373596 -3 8 C-3.33 8.99 -3.66 9.98 -4 11 C-3.01 11.33 -2.02 11.66 -1 12 C-3.64 14.31 -6.28 16.62 -9 19 C-10 16 -10 16 -9 13 C-9.66 12.67 -10.32 12.34 -11 12 C-10.28972656 11.30132812 -9.57945313 10.60265625 -8.84765625 9.8828125 C-7.92855469 8.97273438 -7.00945312 8.06265625 -6.0625 7.125 C-4.68771484 5.76761719 -4.68771484 5.76761719 -3.28515625 4.3828125 C-0.98812373 2.22317745 -0.98812373 2.22317745 0 0 Z " fill="#ffffff" transform="translate(118,101)"/>
<path d="M0 0 C0.99 0 1.98 0 3 0 C3.02923559 3.85415052 3.04687777 7.70827215 3.0625 11.5625 C3.07087891 12.64853516 3.07925781 13.73457031 3.08789062 14.85351562 C3.10459218 20.34832611 2.98582259 25.58961935 2 31 C1.67 31 1.34 31 1 31 C0.67 20.77 0.34 10.54 0 0 Z " fill="#ffffff" transform="translate(148,3)"/>
<path d="M0 0 C7.875 0.875 7.875 0.875 9 2 C9.07313567 4.53049402 9.09247527 7.03304837 9.0625 9.5625 C9.05798828 10.27341797 9.05347656 10.98433594 9.04882812 11.71679688 C9.03700864 13.47790013 9.01907263 15.23896036 9 17 C8.67 17 8.34 17 8 17 C7.67 12.38 7.34 7.76 7 3 C6.01 3.66 5.02 4.32 4 5 C3.63637182 7.20725073 3.63637182 7.20725073 3.8125 9.625 C3.83957031 10.44226563 3.86664063 11.25953125 3.89453125 12.1015625 C3.92933594 12.72804687 3.96414062 13.35453125 4 14 C3.67 14 3.34 14 3 14 C3 11.36 3 8.72 3 6 C1.35 6 -0.3 6 -2 6 C-0.68 5.67 0.64 5.34 2 5 C2 4.34 2 3.68 2 3 C0.68 3.33 -0.64 3.66 -2 4 C-1.34 2.68 -0.68 1.36 0 0 Z " fill="#ffffff" transform="translate(92,128)"/>
<path d="M0 0 C2 2 2 2 2.046875 4.35546875 C1.47735163 9.78842193 0.72921231 14.81236306 -1 20 C-1.99 20 -2.98 20 -4 20 C-3.44858675 15.40488962 -2.45860603 11.37581809 -1 7 C-0.62468554 4.67305036 -0.28082798 2.34023315 0 0 Z " fill="#ffffff" transform="translate(122,153)"/>
<path d="M0 0 C0.66 1.32 1.32 2.64 2 4 C1.67 4.33 1.34 4.66 1 5 C0.92773498 6.85287502 0.9161878 8.70833878 0.9375 10.5625 C0.94652344 11.57441406 0.95554687 12.58632812 0.96484375 13.62890625 C0.97644531 14.41136719 0.98804687 15.19382812 1 16 C0.34 15.01 -0.32 14.02 -1 13 C-1.99 13.495 -1.99 13.495 -3 14 C-3.32374517 8.49633208 -3.53286034 4.56327794 0 0 Z " fill="#ffffff" transform="translate(84,93)"/>
<path d="M0 0 C0.33 0 0.66 0 1 0 C1.25 6.625 1.25 6.625 -1 10 C-3.625 10.1875 -3.625 10.1875 -6 10 C-5.47731534 7.23723823 -4.89130413 4.6739124 -4 2 C-2.68 2 -1.36 2 0 2 C0 1.34 0 0.68 0 0 Z " fill="#ffffff" transform="translate(108,88)"/>
<path d="M0 0 C0.99 0.33 1.98 0.66 3 1 C2.67 3.31 2.34 5.62 2 8 C0.35 8.66 -1.3 9.32 -3 10 C-3.36923077 3.47692308 -3.36923077 3.47692308 -1.5 1.0625 C-1.005 0.711875 -0.51 0.36125 0 0 Z " fill="#ffffff" transform="translate(121,58)"/>
<path d="M0 0 C0.33 0.66 0.66 1.32 1 2 C0.00390625 4.3828125 0.00390625 4.3828125 -1.4375 7.125 C-1.91058594 8.03507812 -2.38367188 8.94515625 -2.87109375 9.8828125 C-3.24363281 10.58148438 -3.61617187 11.28015625 -4 12 C-6 9 -6 9 -6 7 C-5.01 7 -4.02 7 -3 7 C-3 6.34 -3 5.68 -3 5 C-3.99 5.33 -4.98 5.66 -6 6 C-6.33 6.99 -6.66 7.98 -7 9 C-7.66 9 -8.32 9 -9 9 C-7.25 3.25 -7.25 3.25 -5 1 C-4.67 1.99 -4.34 2.98 -4 4 C-3.34 4 -2.68 4 -2 4 C-2 3.01 -2 2.02 -2 1 C-1.34 0.67 -0.68 0.34 0 0 Z " fill="#ffffff" transform="translate(141,25)"/>
<path d="M0 0 C0.625 1.875 0.625 1.875 1 4 C0.34 4.66 -0.32 5.32 -1 6 C-1.64767793 8.57061311 -1.64767793 8.57061311 -2 11 C-3.32 11 -4.64 11 -6 11 C-5.39147692 7.45028204 -4.61653196 4.23306391 -3 1 C-2.01 0.67 -1.02 0.34 0 0 Z " fill="#ffffff" transform="translate(77,152)"/>
<path d="M0 0 C0.99 0.33 1.98 0.66 3 1 C2.67 2.093125 2.34 3.18625 2 4.3125 C0.86913351 7.84578884 0.86913351 7.84578884 1 11 C0.34 11 -0.32 11 -1 11 C-1.33 10.01 -1.66 9.02 -2 8 C-2.99 8 -3.98 8 -5 8 C-2.25 1.125 -2.25 1.125 0 0 Z " fill="#ffffff" transform="translate(139,14)"/>
<path d="M0 0 C0.66 0 1.32 0 2 0 C2 2.64 2 5.28 2 8 C3.65 8.33 5.3 8.66 7 9 C7.33 9.99 7.66 10.98 8 12 C1.125 11.125 1.125 11.125 0 10 C-0.07205511 8.31391034 -0.08386068 6.62499341 -0.0625 4.9375 C-0.05347656 4.01839844 -0.04445312 3.09929687 -0.03515625 2.15234375 C-0.02355469 1.44207031 -0.01195312 0.73179687 0 0 Z " fill="#ffffff" transform="translate(61,134)"/>
<path d="M0 0 C0.75 2.25 0.75 2.25 1 5 C-0.9375 7.3125 -0.9375 7.3125 -3 9 C-3 8.34 -3 7.68 -3 7 C-3.99 7 -4.98 7 -6 7 C-5.39816251 4.97954558 -4.72693904 2.97888961 -4 1 C-2 0 -2 0 0 0 Z " fill="#ffffff" transform="translate(116,73)"/>
<path d="M0 0 C0.33 1.32 0.66 2.64 1 4 C2.32 4 3.64 4 5 4 C5.33 3.34 5.66 2.68 6 2 C5.14285714 10.57142857 5.14285714 10.57142857 3 14 C3 11.69 3 9.38 3 7 C1.68 7.33 0.36 7.66 -1 8 C-0.67 5.36 -0.34 2.72 0 0 Z " fill="#ffffff" transform="translate(117,169)"/>
<path d="M0 0 C0.125 2.875 0.125 2.875 0 6 C-0.66 6.66 -1.32 7.32 -2 8 C-4.125 7.625 -4.125 7.625 -6 7 C-5.625 4.0625 -5.625 4.0625 -5 1 C-3 0 -3 0 0 0 Z " fill="#ffffff" transform="translate(84,142)"/>
<path d="M0 0 C1.65 0 3.3 0 5 0 C5 4.29 5 8.58 5 13 C3.02 13 1.04 13 -1 13 C-1 12.67 -1 12.34 -1 12 C0.65 12 2.3 12 4 12 C3.67 10.02 3.34 8.04 3 6 C2.34 6 1.68 6 1 6 C0.67 4.02 0.34 2.04 0 0 Z " fill="#ffffff" transform="translate(67,142)"/>
<path d="M0 0 C4.13333333 6.2 4.13333333 6.2 3.625 9.25 C3.41875 9.8275 3.2125 10.405 3 11 C0 11 0 11 -1.6875 9.5 C-2.120625 9.005 -2.55375 8.51 -3 8 C-2.67 7.34 -2.34 6.68 -2 6 C-1.34 6.33 -0.68 6.66 0 7 C0 4.69 0 2.38 0 0 Z " fill="#ffffff" transform="translate(85,108)"/>
<path d="M0 0 C1.65 0.33 3.3 0.66 5 1 C5 1.99 5 2.98 5 4 C4.34 4 3.68 4 3 4 C2.34 5.32 1.68 6.64 1 8 C0.34 8 -0.32 8 -1 8 C-1.125 2.25 -1.125 2.25 0 0 Z " fill="#ffffff" transform="translate(95,109)"/>
<path d="M0 0 C0.33 0.66 0.66 1.32 1 2 C-0.07674702 4.28258633 -1.19546116 6.4356434 -2.4375 8.625 C-2.77587891 9.23601562 -3.11425781 9.84703125 -3.46289062 10.4765625 C-4.30146192 11.988353 -5.14982577 13.49470399 -6 15 C-6.33 13.68 -6.66 12.36 -7 11 C-6.34 11 -5.68 11 -5 11 C-5.103125 10.113125 -5.20625 9.22625 -5.3125 8.3125 C-4.90501428 3.99315142 -3.2277297 2.74357025 0 0 Z " fill="#ffffff" transform="translate(137,80)"/>
<path d="M0 0 C0.66 0.33 1.32 0.66 2 1 C1.8794926 7.98942918 1.8794926 7.98942918 -0.625 10.8671875 C-2.36746619 12.33563683 -4.12427238 13.70707026 -6 15 C-5.6875 13.0625 -5.6875 13.0625 -5 11 C-4.01 10.67 -3.02 10.34 -2 10 C-2 8.68 -2 7.36 -2 6 C-1.34 6 -0.68 6 0 6 C0 4.02 0 2.04 0 0 Z " fill="#ffffff" transform="translate(145,51)"/>
<path d="M0 0 C0 1.65 0 3.3 0 5 C-0.33 5 -0.66 5 -1 5 C-1.33 6.65 -1.66 8.3 -2 10 C-2.66 10 -3.32 10 -4 10 C-4 11.32 -4 12.64 -4 14 C-4.99 14.33 -5.98 14.66 -7 15 C-6.690625 14.154375 -6.38125 13.30875 -6.0625 12.4375 C-4.88367076 8.9944434 -4.88367076 8.9944434 -4.5625 5.25 C-4.376875 4.1775 -4.19125 3.105 -4 2 C-1 0 -1 0 0 0 Z " fill="#ffffff" transform="translate(147,47)"/>
<path d="M0 0 C0.99 0.33 1.98 0.66 3 1 C3 2.98 3 4.96 3 7 C2.01 7.495 2.01 7.495 1 8 C0.67 7.34 0.34 6.68 0 6 C-0.33 6.99 -0.66 7.98 -1 9 C-1.66 9 -2.32 9 -3 9 C-2.5020163 5.26512223 -2.12508244 3.18762365 0 0 Z " fill="#ffffff" transform="translate(111,46)"/>
<path d="M0 0 C1 3 1 3 0 5.0625 C-0.33 5.701875 -0.66 6.34125 -1 7 C-0.67 7.66 -0.34 8.32 0 9 C-0.99 9.99 -1.98 10.98 -3 12 C-3 11.01 -3 10.02 -3 9 C-4.32 9.33 -5.64 9.66 -7 10 C-5.33248852 6.05860922 -2.77289351 3.2107188 0 0 Z " fill="#ffffff" transform="translate(136,15)"/>
<path d="M0 0 C0.33 0.99 0.66 1.98 1 3 C2.175625 2.9071875 2.175625 2.9071875 3.375 2.8125 C4.674375 2.9053125 4.674375 2.9053125 6 3 C8 6 8 6 7.625 8.6875 C7.41875 9.450625 7.2125 10.21375 7 11 C6.01 11.33 5.02 11.66 4 12 C4.33 10.02 4.66 8.04 5 6 C2.525 5.01 2.525 5.01 0 4 C0 2.68 0 1.36 0 0 Z " fill="#ffffff" transform="translate(128,68)"/>
<path d="M0 0 C1.32 0 2.64 0 4 0 C4 0.66 4 1.32 4 2 C5.65 1.67 7.3 1.34 9 1 C8.375 3.4375 8.375 3.4375 7 6 C3.875 6.8125 3.875 6.8125 1 7 C1 6.34 1 5.68 1 5 C1.66 4.67 2.32 4.34 3 4 C2.01 3.34 1.02 2.68 0 2 C0 1.34 0 0.68 0 0 Z " fill="#ffffff" transform="translate(92,118)"/>
<path d="M0 0 C1.98 1.65 3.96 3.3 6 5 C4.02 5.99 4.02 5.99 2 7 C1.34 6.34 0.68 5.68 0 5 C-0.99 5 -1.98 5 -3 5 C-3 3.68 -3 2.36 -3 1 C-2.34 1.33 -1.68 1.66 -1 2 C-0.67 1.34 -0.34 0.68 0 0 Z " fill="#ffffff" transform="translate(89,116)"/>
<path d="M0 0 C0.66 0.66 1.32 1.32 2 2 C1.625 4.125 1.625 4.125 1 6 C0.67 5.67 0.34 5.34 0 5 C-0.66 6.98 -1.32 8.96 -2 11 C-3.85776765 7.86501708 -4.20140476 5.62528568 -4 2 C-2.68 2.33 -1.36 2.66 0 3 C0 2.01 0 1.02 0 0 Z " fill="#ffffff" transform="translate(38,155)"/>
<path d="M0 0 C0.66 0.99 1.32 1.98 2 3 C0.06273348 7.58826282 -1.48864333 9.80528594 -6 12 C-4.43358249 7.69235185 -2.31663844 3.93828536 0 0 Z " fill="#ffffff" transform="translate(129,84)"/>
<path d="M0 0 C0.33 0 0.66 0 1 0 C1.29341888 5.67276511 1.00559652 8.99067246 -2 14 C-2.66 14 -3.32 14 -4 14 C-4.33 13.01 -4.66 12.02 -5 11 C-4.54625 10.67 -4.0925 10.34 -3.625 10 C-1.15680026 6.9622157 -0.81156856 3.80812939 0 0 Z " fill="#ffffff" transform="translate(142,48)"/>
<path d="M0 0 C0.66 1.32 1.32 2.64 2 4 C0.02 4.99 0.02 4.99 -2 6 C-2 6.99 -2 7.98 -2 9 C-2.66 9 -3.32 9 -4 9 C-4.33 6.69 -4.66 4.38 -5 2 C-4.34 1.67 -3.68 1.34 -3 1 C-3 2.32 -3 3.64 -3 5 C-2.34 5 -1.68 5 -1 5 C-1.33 4.01 -1.66 3.02 -2 2 C-1.34 2 -0.68 2 0 2 C0 1.34 0 0.68 0 0 Z " fill="#ffffff" transform="translate(141,20)"/>
<path d="M0 0 C1.32 0.33 2.64 0.66 4 1 C4 1.99 4 2.98 4 4 C3.01 4.33 2.02 4.66 1 5 C0.34 5.66 -0.32 6.32 -1 7 C-1.66 7 -2.32 7 -3 7 C-2.38722388 4.03824877 -1.74627478 2.61941217 0 0 Z " fill="#ffffff" transform="translate(118,37)"/>
<path d="M0 0 C1.125 3.75 1.125 3.75 0 6 C-0.99 6 -1.98 6 -3 6 C-3.33 6.66 -3.66 7.32 -4 8 C-5.04449911 4.86650268 -4.93423645 4.01031744 -4 1 C-2.68 0.67 -1.36 0.34 0 0 Z " fill="#ffffff" transform="translate(91,125)"/>
<path d="M0 0 C2.0625 0.4375 2.0625 0.4375 4 1 C3.3125 3.4375 3.3125 3.4375 2 6 C-0.625 6.8125 -0.625 6.8125 -3 7 C-1.125 1.125 -1.125 1.125 0 0 Z " fill="#ffffff" transform="translate(116,106)"/>
<path d="M0 0 C0.33 0.99 0.66 1.98 1 3 C1.99 3 2.98 3 4 3 C3.625 5.4375 3.625 5.4375 3 8 C2.01 8.495 2.01 8.495 1 9 C0.67 8.01 0.34 7.02 0 6 C-0.99 5.34 -1.98 4.68 -3 4 C-2.01 2.68 -1.02 1.36 0 0 Z " fill="#ffffff" transform="translate(122,96)"/>
<path d="M0 0 C0.33 0 0.66 0 1 0 C1.125 2.875 1.125 2.875 1 6 C0.34 6.66 -0.32 7.32 -1 8 C-2.32 8 -3.64 8 -5 8 C-5 6.68 -5 5.36 -5 4 C-4.01 3.67 -3.02 3.34 -2 3 C-1.34 2.01 -0.68 1.02 0 0 Z " fill="#ffffff" transform="translate(91,79)"/>
<path d="M0 0 C0.33 1.32 0.66 2.64 1 4 C2.32 2.68 3.64 1.36 5 0 C5.66 0.33 6.32 0.66 7 1 C7 2.32 7 3.64 7 5 C5.02 5.99 5.02 5.99 3 7 C3 6.34 3 5.68 3 5 C1.68 5 0.36 5 -1 5 C-0.67 3.35 -0.34 1.7 0 0 Z " fill="#ffffff" transform="translate(93,113)"/>
<path d="M0 0 C0.99 0 1.98 0 3 0 C3 0.66 3 1.32 3 2 C2.01 2 1.02 2 0 2 C0.33 3.65 0.66 5.3 1 7 C-0.32 7 -1.64 7 -3 7 C-3 6.01 -3 5.02 -3 4 C-2.34 4 -1.68 4 -1 4 C-0.67 2.68 -0.34 1.36 0 0 Z M-4 8 C-3.01 8.495 -3.01 8.495 -2 9 C-2.99 9.495 -2.99 9.495 -4 10 C-4 9.34 -4 8.68 -4 8 Z " fill="#ffffff" transform="translate(135,30)"/>
<path d="M0 0 C0.33 0 0.66 0 1 0 C1.22786458 1.98567708 1.45572917 3.97135417 1.68359375 5.95703125 C1.97170735 8.19396393 1.97170735 8.19396393 3 11 C1.68 12.65 0.36 14.3 -1 16 C-0.67 10.72 -0.34 5.44 0 0 Z " fill="#ffffff" transform="translate(145,23)"/>
<path d="M0 0 C0.99 0.33 1.98 0.66 3 1 C2.25 5.75 2.25 5.75 0 8 C0 6.68 0 5.36 0 4 C-1.32 4.33 -2.64 4.66 -4 5 C-3.34 3.68 -2.68 2.36 -2 1 C-1.67 1.33 -1.34 1.66 -1 2 C-0.67 1.34 -0.34 0.68 0 0 Z " fill="#ffffff" transform="translate(84,138)"/>
<path d="M0 0 C0.33 1.32 0.66 2.64 1 4 C1.66 4 2.32 4 3 4 C3 3.34 3 2.68 3 2 C3.99 2 4.98 2 6 2 C5.34 3.32 4.68 4.64 4 6 C2.68 6 1.36 6 0 6 C-1.125 2.25 -1.125 2.25 0 0 Z " fill="#ffffff" transform="translate(67,168)"/>
<path d="M0 0 C0.33 0 0.66 0 1 0 C0.91266424 1.60517097 0.80447776 3.20921662 0.6875 4.8125 C0.62949219 5.70582031 0.57148437 6.59914062 0.51171875 7.51953125 C-0.06313581 10.30604 -0.8206856 11.24135754 -3 13 C-2.52060632 8.28596212 -2.03165952 4.33420699 0 0 Z " fill="#ffffff" transform="translate(121,155)"/>
<path d="M0 0 C0.66 1.32 1.32 2.64 2 4 C1.01 4 0.02 4 -1 4 C-0.67 2.68 -0.34 1.36 0 0 Z M3 0 C3.99 0.33 4.98 0.66 6 1 C5.34 2.98 4.68 4.96 4 7 C3.67 7 3.34 7 3 7 C2.61866701 5.0085944 2.28674418 3.00720923 2 1 C2.33 0.67 2.66 0.34 3 0 Z " fill="#ffffff" transform="translate(106,86)"/>
<path d="M0 0 C0.66 0 1.32 0 2 0 C1.01 2.97 0.02 5.94 -1 9 C-1.33 9 -1.66 9 -2 9 C-2.12375 8.195625 -2.2475 7.39125 -2.375 6.5625 C-2.684375 5.2940625 -2.684375 5.2940625 -3 4 C-3.66 3.67 -4.32 3.34 -5 3 C-4.67 2.34 -4.34 1.68 -4 1 C-2.02 1.495 -2.02 1.495 0 2 C0 1.34 0 0.68 0 0 Z " fill="#ffffff" transform="translate(75,161)"/>
<path d="M0 0 C1.32 0.33 2.64 0.66 4 1 C3.25 7.75 3.25 7.75 1 10 C0.67 8.35 0.34 6.7 0 5 C0.66 5 1.32 5 2 5 C1.34 3.35 0.68 1.7 0 0 Z " fill="#ffffff" transform="translate(137,69)"/>
<path d="M0 0 C0.33 0.66 0.66 1.32 1 2 C0.00102287 4.99693138 -0.65130253 6.02709413 -3 8 C-3.66 8 -4.32 8 -5 8 C-4.64950425 4.75791433 -4.43778819 3.38472296 -1.9375 1.1875 C-1.298125 0.795625 -0.65875 0.40375 0 0 Z " fill="#ffffff" transform="translate(98,68)"/>
<path d="M0 0 C1.485 0.99 1.485 0.99 3 2 C2.67 3.98 2.34 5.96 2 8 C1.01 7.67 0.02 7.34 -1 7 C-0.67 4.69 -0.34 2.38 0 0 Z " fill="#ffffff" transform="translate(37,159)"/>
<path d="M0 0 C0.66 0.33 1.32 0.66 2 1 C2 3 2 3 0.75 4.625 C-1 6 -1 6 -5 6 C-5 5.34 -5 4.68 -5 4 C-4.34 4 -3.68 4 -3 4 C-2.67 3.01 -2.34 2.02 -2 1 C-1.34 0.67 -0.68 0.34 0 0 Z " fill="#ffffff" transform="translate(127,51)"/>
<path d="M0 0 C2.0625 0.4375 2.0625 0.4375 4 1 C3.67 1.99 3.34 2.98 3 4 C2.34 4 1.68 4 1 4 C1 4.66 1 5.32 1 6 C0.34 6 -0.32 6 -1 6 C-1.042721 4.33388095 -1.04063832 2.66617115 -1 1 C-0.67 0.67 -0.34 0.34 0 0 Z " fill="#ffffff" transform="translate(34,151)"/>
<path d="M0 0 C0.33 0.66 0.66 1.32 1 2 C1.66 2.33 2.32 2.66 3 3 C2.67 3.99 2.34 4.98 2 6 C0.35 5.67 -1.3 5.34 -3 5 C-2.01 3.35 -1.02 1.7 0 0 Z " fill="#ffffff" transform="translate(137,60)"/>
<path d="M0 0 C1.98 0.495 1.98 0.495 4 1 C3.75 2.875 3.75 2.875 3 5 C0.9375 6.25 0.9375 6.25 -1 7 C-0.67 4.69 -0.34 2.38 0 0 Z " fill="#ffffff" transform="translate(128,42)"/>
<path d="M0 0 C0.99 0.33 1.98 0.66 3 1 C2.34 1 1.68 1 1 1 C0.67 1.99 0.34 2.98 0 4 C-0.99 5.485 -0.99 5.485 -2 7 C-2.99 7 -3.98 7 -5 7 C-3.70700306 4.11562221 -2.34058637 2.12780579 0 0 Z " fill="#ffffff" transform="translate(147,2)"/>
<path d="M0 0 C0.66 0.99 1.32 1.98 2 3 C1.01 3.33 0.02 3.66 -1 4 C-0.67 2.68 -0.34 1.36 0 0 Z M2 1 C2.99 1 3.98 1 5 1 C4.67 2.98 4.34 4.96 4 7 C3.67 7 3.34 7 3 7 C2.67 5.02 2.34 3.04 2 1 Z " fill="#ffffff" transform="translate(85,85)"/>
<path d="M0 0 C0.66 0 1.32 0 2 0 C0.92598892 2.91517292 0.22189824 4.77810176 -2 7 C-2.33 5.68 -2.66 4.36 -3 3 C-2.34 3 -1.68 3 -1 3 C-0.67 2.01 -0.34 1.02 0 0 Z " fill="#ffffff" transform="translate(96,73)"/>
<path d="M0 0 C1.32 0 2.64 0 4 0 C3.6875 1.9375 3.6875 1.9375 3 4 C2.01 4.33 1.02 4.66 0 5 C0 3.35 0 1.7 0 0 Z " fill="#ffffff" transform="translate(118,63)"/>
</svg>